<svg xmlns="http://www.w3.org/2000/svg" width="512" height="512" viewBox="0 0 32 32"><g fill="none"><path fill="url(#SVGjhTlgcwX)" d="M3 7.5A4.5 4.5 0 0 1 7.5 3h17A4.5 4.5 0 0 1 29 7.5v17a4.5 4.5 0 0 1-4.5 4.5h-17A4.5 4.5 0 0 1 3 24.5z"/><path fill="url(#SVGgw25xbku)" d="M28.356 26.82A4.5 4.5 0 0 1 24.5 29h-17a4.5 4.5 0 0 1-3.856-2.18l10.588-10.588a2.5 2.5 0 0 1 3.536 0z"/><path fill="url(#SVGImjxQeZg)" d="M19 11a3 3 0 1 1 6 0a3 3 0 0 1-6 0"/><defs><linearGradient id="SVGgw25xbku" x1="12.469" x2="15.605" y1="15.5" y2="29.673" gradientUnits="userSpaceOnUse"><stop stop-color="#B3E0FF"/><stop offset="1" stop-color="#8CD0FF"/></linearGradient><linearGradient id="SVGImjxQeZg" x1="20.8" x2="22.992" y1="7.333" y2="15.225" gradientUnits="userSpaceOnUse"><stop stop-color="#FDFDFD"/><stop offset="1" stop-color="#B3E0FF"/></linearGradient><radialGradient id="SVGjhTlgcwX" cx="0" cy="0" r="1" gradientTransform="matrix(44.57142 56.41068 -51.30938 40.54076 -7.214 -11.625)" gradientUnits="userSpaceOnUse"><stop offset=".338" stop-color="#0FAFFF"/><stop offset=".529" stop-color="#367AF2"/></radialGradient></defs></g></svg>