<svg width="512" height="512" viewBox="0 0 512 512" fill="none" xmlns="http://www.w3.org/2000/svg">
<path d="M48 120C48 100.904 55.5857 82.5909 69.0883 69.0883C82.5909 55.5857 100.904 48 120 48H392C411.096 48 429.409 55.5857 442.912 69.0883C456.414 82.5909 464 100.904 464 120V392C464 411.096 456.414 429.409 442.912 442.912C429.409 456.414 411.096 464 392 464H120C100.904 464 82.5909 456.414 69.0883 442.912C55.5857 429.409 48 411.096 48 392V120Z" fill="url(#paint0_radial_1_2)"/>
<path d="M453.696 429.12C447.294 439.761 438.248 448.565 427.437 454.677C416.626 460.789 404.419 464 392 464H120C107.581 464 95.3737 460.789 84.5631 454.677C73.7525 448.565 64.7065 439.761 58.304 429.12L227.712 259.712C231.427 255.997 235.837 253.049 240.69 251.038C245.544 249.028 250.746 247.993 256 247.993C261.254 247.993 266.456 249.028 271.31 251.038C276.164 253.049 280.574 255.997 284.288 259.712L453.696 429.12Z" fill="url(#paint1_linear_1_2)"/>
<path d="M304 176C304 169.697 305.242 163.455 307.654 157.631C310.066 151.808 313.602 146.516 318.059 142.059C322.516 137.602 327.808 134.066 333.631 131.654C339.455 129.242 345.697 128 352 128C358.303 128 364.545 129.242 370.369 131.654C376.192 134.066 381.484 137.602 385.941 142.059C390.398 146.516 393.934 151.808 396.346 157.631C398.758 163.455 400 169.697 400 176C400 188.73 394.943 200.939 385.941 209.941C376.939 218.943 364.73 224 352 224C339.27 224 327.061 218.943 318.059 209.941C309.057 200.939 304 188.73 304 176Z" fill="url(#paint2_linear_1_2)"/>
<defs>
<radialGradient id="paint0_radial_1_2" cx="0" cy="0" r="1" gradientUnits="userSpaceOnUse" gradientTransform="translate(-115.424 -186) rotate(51.6869) scale(1150.31 1046.28)">
<stop offset="0.5289" stop-color="#0FAFFF"/>
<stop offset="0.529" stop-color="#002058"/>
</radialGradient>
<linearGradient id="paint1_linear_1_2" x1="199.504" y1="248" x2="249.68" y2="474.768" gradientUnits="userSpaceOnUse">
<stop stop-color="#101F2A"/>
<stop offset="1" stop-color="#045893"/>
</linearGradient>
<linearGradient id="paint2_linear_1_2" x1="332.8" y1="117.328" x2="367.872" y2="243.6" gradientUnits="userSpaceOnUse">
<stop stop-color="#FDFDFD"/>
<stop offset="1" stop-color="#B3E0FF"/>
</linearGradient>
</defs>
</svg>
